<svg width="24" height="25" viewBox="0 0 24 25" fill="none" xmlns="http://www.w3.org/2000/svg">
<path d="M12 2.5C6.49 2.5 2 6.99 2 12.5C2 18.01 6.49 22.5 12 22.5C17.51 22.5 22 18.01 22 12.5C22 6.99 17.51 2.5 12 2.5ZM14.79 13.03L11.26 16.56C11.11 16.71 10.92 16.78 10.73 16.78C10.54 16.78 10.35 16.71 10.2 16.56C10.0605 16.4189 9.9823 16.2284 9.9823 16.03C9.9823 15.8316 10.0605 15.6411 10.2 15.5L13.2 12.5L10.2 9.5C10.0605 9.35886 9.9823 9.16843 9.9823 8.97C9.9823 8.77157 10.0605 8.58114 10.2 8.44C10.49 8.15 10.97 8.15 11.26 8.44L14.79 11.97C15.09 12.26 15.09 12.74 14.79 13.03Z" fill="#21A986"/>
</svg>
