<svg width="24" height="25" viewBox="0 0 24 25" fill="none" xmlns="http://www.w3.org/2000/svg">
<path d="M22 16.69C22 20.33 19.83 22.5 16.19 22.5H15C14.45 22.5 14 22.05 14 21.5V15.73C14 15.46 14.22 15.23 14.49 15.23L16.25 15.2C16.39 15.19 16.51 15.09 16.54 14.95L16.89 13.04C16.8968 12.9967 16.8941 12.9525 16.8822 12.9103C16.8702 12.8681 16.8492 12.8291 16.8207 12.7958C16.7922 12.7625 16.7568 12.7358 16.717 12.7176C16.6771 12.6993 16.6338 12.6899 16.59 12.69L14.46 12.72C14.18 12.72 13.96 12.5 13.95 12.23L13.91 9.78C13.91 9.62 14.04 9.48 14.21 9.48L16.61 9.44C16.78 9.44 16.91 9.31 16.91 9.14L16.87 6.74C16.87 6.57 16.74 6.44 16.57 6.44L13.87 6.48C13.4759 6.48599 13.0868 6.56969 12.725 6.72632C12.3633 6.88295 12.0361 7.10942 11.762 7.39276C11.488 7.6761 11.2725 8.01073 11.128 8.37748C10.9835 8.74422 10.9128 9.13588 10.92 9.53L10.97 12.28C10.98 12.56 10.76 12.78 10.48 12.79L9.28 12.81C9.11 12.81 8.98 12.94 8.98 13.11L9.01 15.01C9.01 15.18 9.14 15.31 9.31 15.31L10.51 15.29C10.79 15.29 11.01 15.51 11.02 15.78L11.11 21.48C11.12 22.04 10.67 22.5 10.11 22.5H7.81C4.17 22.5 2 20.33 2 16.68V8.31C2 4.67 4.17 2.5 7.81 2.5H16.19C19.83 2.5 22 4.67 22 8.31V16.69Z" fill="white"/>
</svg>
