<svg width="24" height="25" viewBox="0 0 24 25" fill="none" xmlns="http://www.w3.org/2000/svg">
<path d="M21.74 11.57C21.7154 11.325 21.6003 11.0981 21.4172 10.9335C21.2341 10.7689 20.9962 10.6785 20.75 10.68H13.2C12.65 10.68 12.2 11.13 12.2 11.68V13.39C12.2 13.94 12.65 14.39 13.2 14.39H17.71C17.6 15.31 17 16.7 15.67 17.63C14.82 18.22 13.69 18.63 12.2 18.63C12.13 18.63 12.07 18.63 12 18.62C9.45001 18.54 7.29001 16.83 6.51001 14.48C6.29371 13.8422 6.18226 13.1735 6.18001 12.5C6.18001 11.81 6.30001 11.14 6.50001 10.52C6.56001 10.34 6.63001 10.16 6.71001 9.98C7.63001 7.91 9.64001 6.45 12 6.38C12.06 6.37 12.13 6.37 12.2 6.37C13.63 6.37 14.7 6.84 15.45 7.36C15.84 7.63 16.36 7.57 16.7 7.24L18.09 5.88C18.53 5.45 18.49 4.72 17.99 4.36C16.4 3.19 14.46 2.5 12.2 2.5C12.13 2.5 12.07 2.5 12 2.51C10.1814 2.54221 8.40626 3.07184 6.86729 4.04141C5.32831 5.01098 4.08423 6.38348 3.27001 8.01C2.59001 9.37 2.20001 10.89 2.20001 12.5C2.20001 14.11 2.59001 15.63 3.27001 16.99H3.28001C4.09309 18.6153 5.33553 19.9871 6.87266 20.9566C8.40979 21.9261 10.183 22.4564 12 22.49C12.07 22.5 12.13 22.5 12.2 22.5C14.9 22.5 17.17 21.61 18.82 20.08C20.71 18.33 21.8 15.77 21.8 12.72C21.8 12.29 21.78 11.92 21.74 11.57Z" fill="white"/>
</svg>
