<svg width="142" height="133" viewBox="0 0 142 133" fill="none" xmlns="http://www.w3.org/2000/svg">
<g clip-path="url(#clip0_61_193)">
<path d="M131.265 101.749L137.635 102.746C139.792 100.131 141.278 97.0293 141.966 93.709C137.308 97.5273 130.224 95.4982 124.576 97.5828C122.819 98.2465 121.234 99.2976 119.938 100.658C118.643 102.019 117.669 103.654 117.09 105.442L113.977 108.796C116.795 109.914 119.821 110.406 122.848 110.239C125.874 110.072 128.828 109.25 131.507 107.83C133.001 107.018 134.388 106.021 135.634 104.863C133.405 103.457 131.265 101.749 131.265 101.749Z" fill="#F2F2F2"/>
<path d="M129.004 91.5464L135.149 89.5937C135.915 86.2905 135.864 82.8502 135.001 79.5713C132.532 85.0692 125.288 86.4167 121.161 90.8051C119.885 92.1837 118.934 93.8323 118.38 95.6287C117.826 97.4252 117.683 99.3235 117.961 101.183L116.668 105.575C119.688 105.317 122.616 104.406 125.251 102.905C127.885 101.404 130.163 99.3488 131.928 96.8813C132.904 95.4872 133.702 93.9755 134.301 92.382C131.68 92.1194 129.004 91.5464 129.004 91.5464Z" fill="#F2F2F2"/>
<path d="M142 110.828C142 110.861 141.994 110.894 141.981 110.924C141.969 110.955 141.95 110.982 141.927 111.006C141.904 111.029 141.876 111.047 141.846 111.06C141.815 111.072 141.783 111.079 141.75 111.079H0.250093C0.183764 111.079 0.120151 111.052 0.07325 111.005C0.0263486 110.958 0 110.895 0 110.828C0 110.762 0.0263486 110.698 0.07325 110.651C0.120151 110.604 0.183764 110.578 0.250093 110.578H141.75C141.783 110.578 141.815 110.584 141.846 110.597C141.876 110.609 141.904 110.628 141.927 110.651C141.95 110.674 141.969 110.702 141.981 110.732C141.994 110.763 142 110.795 142 110.828Z" fill="#CCCCCC"/>
<path d="M58.6347 100.151C83.5895 100.151 103.819 79.8925 103.819 54.9021C103.819 29.9118 83.5895 9.65308 58.6347 9.65308C33.6798 9.65308 13.4499 29.9118 13.4499 54.9021C13.4499 79.8925 33.6798 100.151 58.6347 100.151Z" fill="#E6E6E6"/>
<path d="M97.5146 54.902C97.5191 60.9774 96.102 66.9692 93.3767 72.3971C90.6515 77.8249 86.6941 82.5378 81.8218 86.1576C81.496 86.4017 81.164 86.6395 80.8298 86.871C74.3144 91.4064 66.5695 93.8373 58.6346 93.8373C50.6998 93.8373 42.9549 91.4064 36.4395 86.871C36.1053 86.6395 35.7732 86.4017 35.4475 86.1576C30.5786 82.5346 26.6236 77.8211 23.8987 72.394C21.1739 66.9668 19.7547 60.9765 19.7547 54.902C19.7547 48.8275 21.1739 42.8372 23.8987 37.4101C26.6236 31.9829 30.5786 27.2695 35.4475 23.6465C35.7732 23.4024 36.1053 23.1646 36.4395 22.933C42.9549 18.3976 50.6998 15.9668 58.6346 15.9668C66.5695 15.9668 74.3144 18.3976 80.8298 22.933C81.164 23.1646 81.496 23.4024 81.8218 23.6465C86.6941 27.2663 90.6515 31.9791 93.3767 37.407C96.102 42.8348 97.5191 48.8267 97.5146 54.902Z" fill="white"/>
<path d="M58.6347 90.47C78.2503 90.47 94.152 74.5457 94.152 54.9021C94.152 35.2585 78.2503 19.3342 58.6347 19.3342C39.019 19.3342 23.1173 35.2585 23.1173 54.9021C23.1173 74.5457 39.019 90.47 58.6347 90.47Z" fill="#21A986"/>
<path opacity="0.2" d="M58.7273 19.4336C58.1889 19.4336 57.6538 19.4477 57.1212 19.4714C66.098 20.2614 74.4393 24.4389 80.4552 31.1578C86.4711 37.8766 89.7117 46.6342 89.5205 55.6564C89.3293 64.6786 85.7205 73.2906 79.4253 79.7478C73.1302 86.2049 64.6194 90.0243 55.6172 90.4321C56.6423 90.5211 57.6791 90.5693 58.7273 90.5693C68.1471 90.5693 77.1811 86.822 83.8419 80.1517C90.5027 73.4815 94.2446 64.4347 94.2446 55.0015C94.2446 45.5683 90.5027 36.5215 83.8419 29.8512C77.1811 23.1809 68.1471 19.4336 58.7273 19.4336V19.4336Z" fill="black"/>
<path d="M58.7397 16.8086C58.4333 16.8091 58.1396 16.9313 57.923 17.1482C57.7063 17.3652 57.5844 17.6593 57.5838 17.9661V23.0172C57.5838 23.3242 57.7056 23.6186 57.9224 23.8357C58.1392 24.0528 58.4332 24.1747 58.7397 24.1747C59.0463 24.1747 59.3403 24.0528 59.5571 23.8357C59.7738 23.6186 59.8956 23.3242 59.8956 23.0172V17.9661C59.8951 17.6593 59.7731 17.3652 59.5565 17.1482C59.3398 16.9313 59.0461 16.8091 58.7397 16.8086Z" fill="white"/>
<path d="M81.8218 23.6466C81.496 23.4024 81.164 23.1646 80.8298 22.9331C80.6293 22.92 80.4289 22.9595 80.2483 23.0478C80.0677 23.136 79.9132 23.2698 79.8 23.4361L76.9608 27.6096C76.7882 27.8632 76.7234 28.1752 76.7806 28.4767C76.8377 28.7783 77.0122 29.0447 77.2655 29.2175C77.5188 29.3902 77.8303 29.4551 78.1314 29.3979C78.4325 29.3407 78.6986 29.166 78.8711 28.9123L81.7104 24.7389C81.8184 24.5805 81.8852 24.3977 81.9047 24.2069C81.9241 24.0161 81.8956 23.8235 81.8218 23.6466Z" fill="white"/>
<path d="M94.7215 42.6765C94.6644 42.5358 94.5802 42.4077 94.4737 42.2996C94.3671 42.1915 94.2404 42.1055 94.1007 42.0464C93.9609 41.9874 93.8109 41.9565 93.6593 41.9556C93.5076 41.9546 93.3572 41.9836 93.2168 42.0409L88.5428 43.9413C88.259 44.0571 88.0328 44.2809 87.9138 44.5636C87.7948 44.8462 87.7927 45.1647 87.908 45.4489C88.0233 45.7331 88.2466 45.9599 88.5287 46.0793C88.8109 46.1988 89.1289 46.2012 89.4128 46.0859L94.0868 44.1855C94.3704 44.0692 94.5964 43.8451 94.7154 43.5622C94.8343 43.2794 94.8365 42.9609 94.7215 42.6765Z" fill="white"/>
<path d="M40.3085 27.6096L37.4693 23.4361C37.3561 23.2698 37.2016 23.136 37.021 23.0478C36.8404 22.9595 36.64 22.92 36.4395 22.9331C36.1053 23.1646 35.7732 23.4024 35.4475 23.6466C35.3737 23.8235 35.3452 24.0161 35.3646 24.2069C35.3841 24.3977 35.4509 24.5805 35.5589 24.7389L38.3982 28.9123C38.5707 29.166 38.8368 29.3407 39.1379 29.3979C39.439 29.4551 39.7505 29.3902 40.0038 29.2175C40.2571 29.0447 40.4316 28.7783 40.4887 28.4767C40.5459 28.1752 40.481 27.8632 40.3085 27.6096Z" fill="white"/>
<path d="M28.7265 43.9413L24.0525 42.0409C23.7685 41.9254 23.4504 41.9276 23.1681 42.047C22.8857 42.1664 22.6623 42.3932 22.5469 42.6776C22.4315 42.9619 22.4337 43.2805 22.5529 43.5633C22.6721 43.8461 22.8985 44.0699 23.1825 44.1854L27.8564 46.0859C28.1404 46.2011 28.4584 46.1987 28.7405 46.0793C29.0227 45.9598 29.246 45.7331 29.3613 45.4488C29.4766 45.1646 29.4745 44.8462 29.3555 44.5635C29.2365 44.2808 29.0102 44.057 28.7265 43.9413V43.9413Z" fill="white"/>
<path d="M58.7397 85.6294C58.4333 85.6299 58.1396 85.7521 57.923 85.969C57.7063 86.186 57.5844 86.4801 57.5838 86.7869V91.838C57.5838 92.145 57.7056 92.4394 57.9224 92.6565C58.1392 92.8736 58.4332 92.9955 58.7397 92.9955C59.0463 92.9955 59.3403 92.8736 59.5571 92.6565C59.7738 92.4394 59.8956 92.145 59.8956 91.838V86.7869C59.8951 86.4801 59.7731 86.186 59.5565 85.969C59.3398 85.7521 59.0461 85.6299 58.7397 85.6294Z" fill="white"/>
<path d="M81.7104 85.0653L78.8711 80.8919C78.7857 80.7663 78.6764 80.6587 78.5495 80.5754C78.4226 80.4921 78.2805 80.4346 78.1314 80.4063C77.9823 80.3779 77.8291 80.3793 77.6805 80.4103C77.532 80.4412 77.3909 80.5012 77.2655 80.5867C77.1401 80.6722 77.0327 80.7817 76.9495 80.9088C76.8663 81.0359 76.8089 81.1782 76.7806 81.3275C76.7523 81.4768 76.7536 81.6302 76.7845 81.779C76.8155 81.9278 76.8753 82.069 76.9608 82.1946L79.8 86.3681C79.9132 86.5344 80.0677 86.6682 80.2483 86.7564C80.4289 86.8446 80.6293 86.8842 80.8298 86.8711C81.164 86.6396 81.496 86.4017 81.8218 86.1576C81.8956 85.9807 81.9241 85.7881 81.9047 85.5973C81.8852 85.4065 81.8184 85.2237 81.7104 85.0653Z" fill="white"/>
<path d="M94.0868 65.6188L89.4128 63.7183C89.1289 63.6029 88.8107 63.6051 88.5284 63.7245C88.246 63.8439 88.0226 64.0707 87.9072 64.3551C87.7919 64.6394 87.794 64.958 87.9132 65.2408C88.0324 65.5236 88.2588 65.7473 88.5428 65.8629L93.2168 67.7634C93.5007 67.8786 93.8187 67.8762 94.1008 67.7568C94.383 67.6373 94.6063 67.4106 94.7216 67.1263C94.8369 66.8421 94.8348 66.5237 94.7158 66.241C94.5968 65.9583 94.3706 65.7345 94.0868 65.6188V65.6188Z" fill="white"/>
<path d="M40.0038 80.5866C39.7505 80.4139 39.439 80.3491 39.1379 80.4063C38.8368 80.4635 38.5708 80.6381 38.3982 80.8918L35.5589 85.0652C35.4509 85.2235 35.3841 85.4064 35.3646 85.5972C35.3452 85.788 35.3737 85.9806 35.4475 86.1575C35.7733 86.4016 36.1053 86.6395 36.4395 86.871C36.64 86.884 36.8405 86.8445 37.021 86.7563C37.2016 86.6681 37.3561 86.5342 37.4693 86.368L40.3086 82.1945C40.394 82.0689 40.4539 81.9277 40.4848 81.7789C40.5157 81.6301 40.5171 81.4767 40.4888 81.3274C40.4605 81.178 40.4031 81.0358 40.3199 80.9087C40.2367 80.7816 40.1293 80.6721 40.0038 80.5866Z" fill="white"/>
<path d="M29.3612 64.3537C29.3041 64.213 29.2199 64.0849 29.1134 63.9768C29.0069 63.8687 28.8801 63.7827 28.7404 63.7237C28.6006 63.6647 28.4506 63.6338 28.299 63.6328C28.1473 63.6319 27.9969 63.6609 27.8565 63.7181L23.1825 65.6186C22.8988 65.7343 22.6725 65.9581 22.5535 66.2408C22.4345 66.5235 22.4324 66.8419 22.5477 67.1261C22.663 67.4104 22.8863 67.6371 23.1685 67.7566C23.4506 67.876 23.7686 67.8784 24.0525 67.7632L28.7265 65.8627C29.0101 65.7464 29.2361 65.5223 29.3551 65.2395C29.474 64.9567 29.4762 64.6382 29.3612 64.3537Z" fill="white"/>
<path d="M60.2395 54.3278C60.3462 54.9605 60.198 55.6097 59.8273 56.1331C59.4566 56.6565 58.8937 57.0113 58.2621 57.1196L37.7507 60.6136C37.4378 60.6669 37.1175 60.6579 36.8081 60.5872C36.4986 60.5166 36.2061 60.3856 35.9473 60.2017C35.6884 60.0178 35.4682 59.7847 35.2993 59.5156C35.1304 59.2465 35.016 58.9467 34.9628 58.6334C34.9096 58.32 34.9185 57.9993 34.9891 57.6894C35.0597 57.3795 35.1905 57.0866 35.3741 56.8273C35.5577 56.5681 35.7905 56.3476 36.0592 56.1784C36.3279 56.0093 36.6273 55.8948 36.9402 55.8415L57.4516 52.3476C58.0834 52.2407 58.7317 52.3892 59.2544 52.7604C59.777 53.1316 60.1313 53.6953 60.2395 54.3278Z" fill="#3F3D56"/>
<path d="M81.8272 77.0849C81.5325 77.3817 81.1324 77.5492 80.7145 77.5509C80.2966 77.5525 79.8951 77.3881 79.5981 77.0937L57.5179 55.1555C57.2216 54.8605 57.0543 54.4598 57.0529 54.0415C57.0514 53.6231 57.2159 53.2212 57.5101 52.9242C57.8044 52.6272 58.2044 52.4594 58.6221 52.4575C59.0399 52.4557 59.4413 52.62 59.7382 52.9144L81.8184 74.8526C82.1148 75.1477 82.2821 75.5485 82.2838 75.9669C82.2854 76.3854 82.1212 76.7875 81.8272 77.0849Z" fill="#3F3D56"/>
<path d="M58.6347 57.638C60.1436 57.638 61.3668 56.4131 61.3668 54.902C61.3668 53.391 60.1436 52.166 58.6347 52.166C57.1258 52.166 55.9026 53.391 55.9026 54.902C55.9026 56.4131 57.1258 57.638 58.6347 57.638Z" fill="#CCCCCC"/>
<path d="M39.816 7.45968C35.6222 14.0624 29.2235 18.4442 21.3323 21.3228C21.1764 21.4398 20.9989 21.5248 20.8102 21.5731C20.6214 21.6214 20.425 21.632 20.2322 21.6043C20.0393 21.5766 19.8538 21.5111 19.6863 21.4116C19.5187 21.3121 19.3723 21.1805 19.2556 21.0243C14.9691 15.2929 15.937 7.10167 21.5942 2.72225C22.9619 1.66529 24.5257 0.890931 26.1947 0.444128C27.8637 -0.00267578 29.6047 -0.113026 31.3166 0.119486C33.0285 0.351999 34.6773 0.92274 36.1672 1.79858C37.657 2.67441 38.9583 3.8379 39.9955 5.22149L40.1141 5.38001C40.2309 5.53616 40.3158 5.71382 40.364 5.90285C40.4122 6.09187 40.4228 6.28856 40.3951 6.48167C40.3674 6.67479 40.302 6.86055 40.2027 7.02836C40.1033 7.19617 39.9719 7.34273 39.816 7.45968Z" fill="#E6E6E6"/>
<path d="M77.2738 5.22148C78.311 3.8379 79.6123 2.67441 81.1021 1.79857C82.592 0.922738 84.2408 0.352 85.9527 0.119487C87.6646 -0.113025 89.4056 -0.00267808 91.0746 0.444125C92.7436 0.890929 94.3074 1.66529 95.6751 2.72224C101.332 7.10167 102.3 15.2929 98.0137 21.0243C97.8969 21.1805 97.7506 21.312 97.583 21.4116C97.4155 21.5111 97.23 21.5766 97.0371 21.6043C96.8443 21.632 96.6479 21.6214 96.4591 21.5731C96.2704 21.5248 96.0929 21.4398 95.937 21.3228C88.6113 18.5141 82.6039 13.6537 77.4533 7.45968C77.1384 7.22348 76.9301 6.87168 76.8742 6.48166C76.8183 6.09165 76.9194 5.69537 77.1552 5.38L77.2738 5.22148Z" fill="#E6E6E6"/>
<path d="M75.4357 94.1042C75.1685 94.2545 74.9718 94.5047 74.8885 94.8C74.8053 95.0953 74.8423 95.4116 74.9914 95.6796L81.6624 107.617C81.8121 107.885 82.0619 108.083 82.3569 108.166C82.6519 108.249 82.9679 108.212 83.2354 108.062C83.5029 107.912 83.6999 107.662 83.7833 107.367C83.8666 107.071 83.8294 106.755 83.6797 106.487L77.0088 94.5491C76.8587 94.2816 76.6089 94.0845 76.314 94.0012C76.0192 93.9178 75.7033 93.9548 75.4357 94.1042Z" fill="#E6E6E6"/>
<path d="M40.2605 94.549L33.5896 106.487C33.44 106.755 33.4027 107.071 33.486 107.367C33.5694 107.662 33.7665 107.912 34.0339 108.062C34.3014 108.212 34.6174 108.249 34.9124 108.166C35.2074 108.083 35.4572 107.885 35.607 107.617L42.2779 95.6796C42.3521 95.5469 42.3994 95.4009 42.4172 95.2499C42.435 95.099 42.423 94.946 42.3818 94.7996C42.3405 94.6533 42.2709 94.5166 42.1769 94.3972C42.0829 94.2778 41.9663 94.1782 41.8338 94.104C41.7013 94.0297 41.5555 93.9823 41.4047 93.9645C41.254 93.9467 41.1012 93.9588 40.9551 94.0001C40.809 94.0415 40.6724 94.1112 40.5533 94.2054C40.4341 94.2996 40.3346 94.4164 40.2605 94.549H40.2605Z" fill="#E6E6E6"/>
<path d="M83.0134 110.674C84.9866 110.674 86.5862 109.072 86.5862 107.096C86.5862 105.12 84.9866 103.519 83.0134 103.519C81.0402 103.519 79.4407 105.12 79.4407 107.096C79.4407 109.072 81.0402 110.674 83.0134 110.674Z" fill="#E6E6E6"/>
<path d="M85.5354 19.1237C87.5085 19.1237 89.1081 17.5218 89.1081 15.5458C89.1081 13.5699 87.5085 11.968 85.5354 11.968C83.5622 11.968 81.9626 13.5699 81.9626 15.5458C81.9626 17.5218 83.5622 19.1237 85.5354 19.1237Z" fill="#E6E6E6"/>
<path d="M58.4245 10.7052C60.3977 10.7052 61.9972 9.10337 61.9972 7.12739C61.9972 5.15141 60.3977 3.54956 58.4245 3.54956C56.4513 3.54956 54.8517 5.15141 54.8517 7.12739C54.8517 9.10337 56.4513 10.7052 58.4245 10.7052Z" fill="#E6E6E6"/>
<path d="M32.5746 18.7028C34.5478 18.7028 36.1473 17.1009 36.1473 15.125C36.1473 13.149 34.5478 11.5471 32.5746 11.5471C30.6014 11.5471 29.0018 13.149 29.0018 15.125C29.0018 17.1009 30.6014 18.7028 32.5746 18.7028Z" fill="#E6E6E6"/>
<path d="M34.8864 110.674C36.8596 110.674 38.4591 109.072 38.4591 107.096C38.4591 105.12 36.8596 103.519 34.8864 103.519C32.9132 103.519 31.3136 105.12 31.3136 107.096C31.3136 109.072 32.9132 110.674 34.8864 110.674Z" fill="#E6E6E6"/>
<path d="M80.2109 75.0728C80.3518 75.2936 80.5393 75.4809 80.7602 75.6213C80.9811 75.7617 81.23 75.8519 81.4895 75.8856C81.749 75.9192 82.0127 75.8955 82.262 75.816C82.5114 75.7366 82.7403 75.6033 82.9326 75.4257L88.5388 78.4339L88.2381 75.1378L82.9605 72.7865C82.6411 72.4827 82.2215 72.3067 81.7813 72.292C81.341 72.2773 80.9106 72.4248 80.5717 72.7066C80.2328 72.9885 80.0089 73.385 79.9424 73.8211C79.8759 74.2572 79.9714 74.7026 80.211 75.0728H80.2109Z" fill="#FFB7B7"/>
<path d="M84.2957 76.2232L86.4926 73.1863L97.0764 78.1966L110.247 75.722C110.898 75.5997 111.567 75.6224 112.209 75.7885C112.85 75.9546 113.447 76.2601 113.957 76.6832C114.467 77.1063 114.878 77.6366 115.16 78.2366C115.443 78.8366 115.59 79.4915 115.591 80.1548C115.592 81.3529 115.118 82.5023 114.274 83.3511C113.429 84.1998 112.283 84.6784 111.087 84.6819L95.994 84.7099L84.2957 76.2232Z" fill="#3F3D56"/>
<path d="M80.9121 128.675L78.6892 127.611L81.7426 118.307L85.023 119.878L80.9121 128.675Z" fill="#FFB7B7"/>
<path d="M95.8138 127.175C95.6522 127.277 95.4905 127.377 95.3273 127.476C95.0023 127.676 94.6742 127.872 94.346 128.065C94.1811 128.161 94.0146 128.258 93.8497 128.353V128.358L93.8399 128.359L93.8366 128.361L93.5852 128.423L93.2244 127.468L93.0578 127.028L92.8227 126.405L92.3917 125.266L90.1222 119.265L93.6505 118.394L93.7827 118.935H93.7844L93.8497 119.203L95.0823 124.21L95.3338 125.233L95.3419 125.264L95.4938 125.876L95.6244 126.405L95.7697 126.997L95.8138 127.175Z" fill="#FFB7B7"/>
<path d="M116.861 106.103C116.637 106.463 116.409 106.821 116.179 107.176C115.751 107.836 115.312 108.487 114.861 109.128C114.861 109.129 114.859 109.129 114.858 109.131C114.595 109.375 114.305 109.587 113.993 109.764C113.979 109.774 113.965 109.78 113.952 109.788C113.722 109.916 113.477 110.014 113.223 110.081C113.132 110.104 113.039 110.127 112.948 110.15C112.618 110.228 112.291 110.295 111.966 110.354C111.388 110.457 110.817 110.531 110.249 110.576C110.203 110.581 110.157 110.585 110.112 110.588C107.775 110.76 105.501 110.483 103.127 110.03C101.955 109.808 100.758 109.541 99.5187 109.265C99.1138 109.174 98.7073 109.084 98.2958 108.994C98.2648 108.987 98.2321 108.979 98.1995 108.973C97.6117 108.843 97.0142 108.716 96.4019 108.59C95.6313 108.431 94.8361 108.278 94.01 108.132L94.0688 109.298C94.1177 110.195 94.3038 111.079 94.6206 111.919C94.9733 112.952 95.2525 113.77 94.6631 115.472L94.379 116.296C94.5263 116.705 94.5768 117.143 94.5267 117.575C94.4765 118.007 94.3271 118.421 94.09 118.786L94.0329 118.873L96.4019 124.875L96.5554 125.264H95.3423L93.85 125.265H91.321L87.6719 117.934L87.4972 117.584V117.566L87.8743 103.477C87.8792 103.353 87.889 103.227 87.9054 103.103C87.9719 102.538 88.1501 101.992 88.4296 101.497C88.709 101.002 89.0842 100.567 89.5332 100.219C89.9634 99.882 90.4561 99.6343 90.9828 99.49C91.5095 99.3457 92.0595 99.3077 92.601 99.3783L93.85 99.5401L96.4019 99.8704L98.1995 100.104L98.2354 100.109L103.537 100.796L103.917 99.2425L103.987 99.2164L106.219 98.3972L113.939 95.5638L113.958 95.5572L114.466 95.3708L114.526 95.4689C114.544 95.4984 114.562 95.5278 114.579 95.5572C115.08 96.4582 115.489 97.4082 115.798 98.3924C116.318 100 116.746 101.636 117.08 103.292C117.095 103.364 117.108 103.43 117.119 103.489L117.124 103.507C117.129 103.534 117.132 103.552 117.134 103.557C117.312 104.3 117.188 105.205 116.861 106.103Z" fill="#2F2E41"/>
<path d="M117.187 100.911C117.162 100.806 117.131 100.7 117.099 100.597C116.84 99.8169 116.538 99.0516 116.194 98.3048C115.809 97.4546 115.347 96.5439 114.797 95.558C114.531 95.0805 114.244 94.584 113.938 94.0685C113.784 93.8101 113.625 93.5469 113.46 93.2787C113.453 93.2664 113.446 93.2544 113.438 93.2428L113.391 93.1643L105.753 94.1878L102.909 94.5688L102.739 95.988L102.699 96.3395C102.697 96.3395 102.697 96.3395 102.699 96.3411L102.584 97.2993V97.3009L102.432 98.5664L102.419 98.5648L98.1988 98.017L93.8493 97.453L91.5129 97.1505C90.9715 97.0798 90.4214 97.1177 89.8947 97.262C89.368 97.4063 88.8753 97.654 88.4451 97.9909C87.9963 98.3394 87.6211 98.7739 87.3417 99.2691C87.0622 99.7642 86.884 100.31 86.8173 100.875C86.8026 100.989 86.7928 101.107 86.7879 101.223L84.5838 106.454C83.2649 109.582 82.4249 112.891 82.0923 116.27L80.476 121.445L80.7062 121.466L84.1315 121.785L85.036 121.87L87.0279 118.958C87.2549 118.626 87.4704 118.285 87.6712 117.935C88.0019 117.363 88.2958 116.771 88.5512 116.162L92.8599 105.895C93.193 105.952 93.5228 106.006 93.8493 106.058C95.3596 106.303 96.8094 106.503 98.1988 106.658C102.716 107.163 106.628 107.203 110.111 106.774C111.089 106.655 112.034 106.498 112.947 106.303C113.282 106.233 113.612 106.157 113.938 106.076C114.015 106.058 114.09 106.04 114.165 106.02C114.84 105.846 115.46 105.505 115.969 105.029C116.478 104.552 116.86 103.956 117.079 103.293C117.341 102.526 117.378 101.699 117.187 100.911Z" fill="#2F2E41"/>
<path d="M81.6221 127.156L79.2171 126.002L78.84 125.82L78.2375 127.302L74.0317 128.229C73.8237 128.274 73.6358 128.385 73.4954 128.546C73.3549 128.706 73.2693 128.907 73.2511 129.119C73.2329 129.332 73.2829 129.544 73.394 129.726C73.5051 129.908 73.6713 130.05 73.8684 130.13L77.9779 131.809L79.2824 130.634L78.9624 132.212L80.5102 132.844L82.2066 127.437L81.6221 127.156Z" fill="#2F2E41"/>
<path d="M96.4018 124.875L96.5555 125.264H96.4018V124.875Z" fill="#2F2E41"/>
<path d="M95.5643 125.347L93.0444 126.221L92.6489 126.358L93.2616 127.835L90.9244 131.458C90.8087 131.636 90.7532 131.848 90.766 132.061C90.7788 132.273 90.8592 132.477 90.9955 132.64C91.1318 132.804 91.3168 132.92 91.5235 132.971C91.7302 133.022 91.9478 133.005 92.1444 132.924L96.2444 131.221L96.3453 129.467L97.2265 130.813L98.7709 130.172L96.1773 125.135L95.5643 125.347Z" fill="#2F2E41"/>
<path d="M116.559 103.28C116.409 103.28 116.262 103.243 116.129 103.173L102.831 96.2148L102.678 95.5849L102.388 93.5914L102.392 93.5727L103.657 87.7339C103.634 87.6838 103.585 87.6015 103.53 87.5086C102.966 86.5507 101.248 83.6351 104.527 79.6205L110.284 72.8985L115.226 72.6855L115.282 72.7567C116.603 74.4174 117.494 76.3794 117.876 78.4682C118.258 80.5569 118.118 82.7077 117.47 84.7295L116.955 94.0354L117.507 95.9147C117.83 97.0191 117.777 98.1997 117.356 99.2704L117.482 102.313C117.487 102.438 117.467 102.563 117.423 102.679C117.379 102.796 117.311 102.903 117.225 102.993C117.139 103.083 117.036 103.155 116.921 103.204C116.806 103.254 116.683 103.279 116.559 103.28L116.559 103.28Z" fill="#3F3D56"/>
<path d="M105.024 110.955C105.249 110.821 105.442 110.64 105.59 110.424C105.738 110.208 105.837 109.962 105.879 109.703C105.922 109.445 105.907 109.18 105.837 108.928C105.766 108.675 105.641 108.442 105.47 108.243L108.668 102.737L105.368 102.923L102.838 108.123C102.523 108.432 102.333 108.846 102.303 109.286C102.273 109.726 102.405 110.162 102.675 110.511C102.944 110.86 103.332 111.098 103.765 111.18C104.198 111.262 104.646 111.181 105.024 110.955L105.024 110.955Z" fill="#FFB7B7"/>
<path d="M106.314 106.906L103.359 104.602L108.728 94.1839L106.716 80.9168C106.617 80.261 106.663 79.5914 106.851 78.9554C107.039 78.3194 107.365 77.7326 107.804 77.2368C108.244 76.741 108.788 76.3483 109.397 76.0865C110.005 75.8247 110.664 75.7004 111.326 75.7222C112.522 75.7629 113.652 76.277 114.47 77.1516C115.288 78.0262 115.725 79.1899 115.687 80.3873L115.19 95.4937L106.314 106.906Z" fill="#3F3D56"/>
<path d="M107.115 70.1053V65.2086C107.114 63.4684 107.803 61.799 109.031 60.5676C110.259 59.3363 111.925 58.6439 113.663 58.6428C115.4 58.6417 117.067 59.3319 118.297 60.5617C119.527 61.7914 120.218 63.4599 120.219 65.2002V65.2086C121.374 67.6185 120.651 68.7642 120.219 70.1053C120.219 70.3389 120.126 70.5627 119.961 70.7279C119.796 70.893 119.573 70.9859 119.339 70.9863H107.995C107.762 70.9861 107.538 70.8932 107.373 70.728C107.208 70.5629 107.115 70.3389 107.115 70.1053Z" fill="#2F2E41"/>
<path d="M111.519 70.6681C114.227 70.6681 116.423 68.4691 116.423 65.7565C116.423 63.044 114.227 60.845 111.519 60.845C108.81 60.845 106.614 63.044 106.614 65.7565C106.614 68.4691 108.81 70.6681 111.519 70.6681Z" fill="#FFB7B7"/>
<path d="M116.651 67.0441C116.607 67.0371 116.563 67.0277 116.518 67.0207C115.753 66.8848 114.988 66.7513 114.225 66.613L114.155 64.8816L113.231 66.4326C111.123 67.1331 109.151 66.7372 107.296 65.8633C106.684 65.5724 106.09 65.2445 105.517 64.8816C105.673 63.9241 106.041 63.0135 106.593 62.2165C107.146 61.4196 107.869 60.7564 108.711 60.2755C108.781 60.2356 108.849 60.2005 108.919 60.1653C108.919 60.1654 108.92 60.1653 108.92 60.1652C108.92 60.1651 108.921 60.1649 108.921 60.1647C108.921 60.1645 108.921 60.1642 108.921 60.1639C108.921 60.1636 108.922 60.1633 108.921 60.163C109.041 60.1068 109.162 60.0529 109.284 60.0037C110.237 59.631 111.275 59.5366 112.279 59.7315C113.283 59.9264 114.211 60.4027 114.955 61.1049C116.453 62.5364 117.126 64.9004 116.651 67.0441Z" fill="#2F2E41"/>
</g>
<defs>
<clipPath id="clip0_61_193">
<rect width="142" height="133" fill="white"/>
</clipPath>
</defs>
</svg>
