<svg width="146" height="132" viewBox="0 0 146 132" fill="none" xmlns="http://www.w3.org/2000/svg">
<path d="M65.1453 72.7991C61.4953 73.3588 58.8253 75.6967 59.1817 78.0206C59.5381 80.3445 62.7856 81.7741 66.4369 81.2137C67.8985 81.0098 69.29 80.4588 70.4951 79.6066L85.9305 77.0396L84.9003 70.9355L69.4997 73.1158C68.0944 72.6638 66.6012 72.5552 65.1453 72.7991Z" fill="#FCC789"/>
<path d="M131.66 53.7719L125.675 66.4781L95.5868 76.6114L70.6198 77.944L69.9945 71.9445L97.0529 66.2843L124.818 53.1575L131.66 53.7719Z" fill="#E6E6E6"/>
<path d="M63.3955 27.1901L62.575 27.2082L64.1435 98.5187L64.9641 98.5006L63.3955 27.1901Z" fill="#3F3D56"/>
<path d="M63.9274 51.3691C63.8531 51.1162 63.8679 48.6662 65.3213 46.5856L66.0176 47.0201C64 49.5 64 52.5 64 54.5V55L63.9274 51.3691Z" fill="#3F3D56"/>
<path d="M65.6092 47.0421C65.6092 47.0421 64.4894 39.385 74.805 37.2835C76.9541 36.8457 78.9745 36.5465 80.8265 36.3471C83.0126 36.1118 83.8654 39.1057 81.8905 40.0728C79.0304 41.4732 76.34 43.2377 74.9377 45.3273C71.0702 51.0902 65.6092 47.0421 65.6092 47.0421Z" fill="#21A986"/>
<path d="M64.4743 80.9073L63.6868 80.6768C63.7038 80.6179 65.3529 74.7528 61.8698 69.1632L62.5662 68.7287C66.2496 74.6402 64.5486 80.6544 64.4743 80.9073Z" fill="#3F3D56"/>
<path d="M62.2783 69.185C62.2783 69.185 63.3981 61.5279 53.0825 59.4264C50.9334 58.9886 48.913 58.6894 47.061 58.49C44.8749 58.2547 44.0221 61.2486 45.997 62.2156C48.8571 63.6161 51.5475 65.3806 52.9498 67.4702C56.8173 73.2331 62.2783 69.185 62.2783 69.185Z" fill="#21A986"/>
<path d="M76.6358 17.2891C78.7122 16.7413 80.6539 15.7869 80.5895 14.8428C80.513 13.7212 77.6303 12.9697 75.1433 12.8554C77.0191 11.3872 78.7427 9.35758 78.2156 8.43967C77.731 7.59579 75.4768 7.92268 73.3971 8.66592C74.6278 6.90548 75.4931 4.92174 74.8342 4.24287C74.0133 3.39722 71.0998 4.85682 69.1115 6.47022C69.4986 3.95671 69.3029 0.783999 68.1761 0.49695C67.2334 0.256808 65.8973 2.10242 64.9813 4.11289C64.5765 2.00306 63.7569 0 62.811 0C61.4635 0 60.3712 4.06455 60.3712 6.7126C60.3712 6.86229 60.3751 7.0032 60.382 7.13783C60.2467 6.98096 60.0917 6.81707 59.915 6.64532C58.0162 4.80046 54.3407 2.75273 53.4019 3.71982C52.7429 4.39869 53.6082 6.38241 54.839 8.14285C52.7592 7.39961 50.505 7.07273 50.0205 7.9166C49.3694 9.05049 52.1525 11.8811 54.4147 13.2537C54.2787 13.2374 54.1358 13.2235 53.9838 13.2132C51.3431 13.0329 47.2155 13.8465 47.1238 15.1915C47.0594 16.1356 49.0011 17.09 51.0775 17.6378C49.0102 18.4152 47.0788 19.6232 47.2541 20.5805C47.4669 21.7423 50.7121 22.149 53.2637 21.9109C51.3574 23.7407 49.2904 27.0186 50.1531 27.9793C50.7852 28.6832 52.8223 27.9546 54.6616 26.8459C53.7789 28.8712 53.2994 31.099 54.108 31.6401C55.1765 32.3552 58.1071 29.8663 59.6522 27.7247C59.4947 30.3447 60.1213 33.9441 61.3646 34.0861C62.3044 34.1935 63.3459 32.2964 63.9874 30.2462C64.6695 32.3476 65.7876 34.333 66.7514 34.2014C68.0048 34.0303 68.5512 30.3409 68.3174 27.719C69.9111 29.7724 72.5934 31.9686 73.6053 31.2914C74.4138 30.7503 73.9344 28.5225 73.0516 26.4972C74.8909 27.6059 76.9281 28.3345 77.5602 27.6306C78.4228 26.6699 76.3558 23.392 74.4496 21.5622C77.0012 21.8003 80.2464 21.3936 80.4591 20.2317C80.6344 19.2745 78.703 18.0665 76.6358 17.2891ZM65.4555 24.7C64.9218 24.7729 64.4337 24.8769 64.0626 25.1426C63.6683 24.751 63.0924 24.6318 62.4521 24.5586C61.7352 24.4767 61.0837 24.4688 60.5869 24.8827C60.4051 24.3772 59.958 24.0181 59.4373 23.6696C58.9896 23.3699 58.5553 23.1239 58.1014 23.0765C58.066 22.5218 57.7141 22.0504 57.2834 21.5708C57.0088 21.2649 56.734 20.9915 56.4292 20.8086C56.869 20.2728 56.8183 19.5956 56.6822 18.8524C56.5851 18.3223 56.459 17.8393 56.1768 17.4804C56.5498 17.0685 56.6427 16.4876 56.6866 15.8443C56.7344 15.1419 56.7145 14.5051 56.3093 14.0309C57.3565 14.1642 57.8619 13.5115 58.3316 12.6934C58.6 12.2261 58.8157 11.776 58.8321 11.3197C59.3829 11.2465 59.829 10.8632 60.278 10.4006C60.6615 10.0055 60.9878 9.61429 61.1103 9.16399C61.5498 9.5335 62.1494 9.58942 62.811 9.58942C63.4554 9.58942 64.0411 9.5363 64.4773 9.19199C64.8159 9.49811 65.289 9.6569 65.811 9.78988C66.3093 9.91682 66.7797 10.0017 67.2074 9.91628C67.3635 10.2731 67.6411 10.5971 67.9581 10.9237C68.4071 11.3862 68.8532 11.7696 69.4039 11.8427C69.4203 12.299 69.6361 12.7492 69.9044 13.2165C70.2203 13.7665 70.552 14.2422 71.0538 14.4544C70.9952 14.7739 71.0015 15.1256 71.0267 15.4956C71.0706 16.1388 71.1634 16.7198 71.5365 17.1317C71.2542 17.4906 71.1281 17.9736 71.031 18.5037C70.8949 19.2469 70.8442 19.9241 71.2841 20.4599C70.9792 20.6428 70.7045 20.9162 70.4298 21.2221C69.9992 21.7017 69.6473 22.1731 69.6118 22.7278C69.1579 22.7752 68.7237 23.0212 68.2759 23.3209C67.6644 23.7301 67.155 24.1543 67.0572 24.8129C66.5983 24.5902 66.0489 24.619 65.4555 24.7Z" fill="#21A986"/>
<path d="M64.0309 25.9786C68.8433 25.9786 72.7445 22.0756 72.7445 17.261C72.7445 12.4463 68.8433 8.5433 64.0309 8.5433C59.2185 8.5433 55.3172 12.4463 55.3172 17.261C55.3172 22.0756 59.2185 25.9786 64.0309 25.9786Z" fill="#3F3D56"/>
<path d="M0.5 122.755C0.5 123.222 0.642657 123.596 0.820303 123.596H141.394C141.572 123.596 141.714 123.222 141.714 122.755C141.714 122.289 141.572 121.915 141.394 121.915H0.820303C0.642657 121.915 0.5 122.289 0.5 122.755Z" fill="#3F3D56"/>
<path d="M76.1664 102.017L70.793 115.615L63.8392 110.872L67.9482 96.6415L76.1664 102.017Z" fill="#FCC789"/>
<path d="M53.7245 96.9577L39.5008 110.556L45.1903 116.564L59.7301 105.18L53.7245 96.9577Z" fill="#FCC789"/>
<path d="M134.326 52.6858L134.168 51.579L130.533 44.4638L118.522 47.6261L120.734 57.4292L134.326 52.6858Z" fill="#FCC789"/>
<path d="M129.268 100.12L129.638 104.87C129.638 104.87 131.165 124.786 118.838 126.367C106.51 127.948 101.137 129.529 93.867 117.196L82.488 96.9577L75.8416 104.87L67 97.9064C67 97.9064 73.3216 73.2406 78.379 72.2919C79.0111 72.1733 79.6433 72.114 80.2656 72.1011C84.4524 72.0138 88.3991 74.0626 90.9042 77.42L105.246 96.6415L110.461 94.2698L129.268 100.12Z" fill="#2F2E41"/>
<path d="M60.9944 114.983L63.8392 109.607L72.0573 115.299C72.0573 115.299 73.9538 122.256 71.1091 123.205C68.2643 124.153 60.3622 122.888 60.3622 122.888C60.3622 122.888 45.8224 126.051 45.5064 123.205C45.1903 120.359 52.1441 119.726 52.1441 119.726L60.9944 114.983Z" fill="#2F2E41"/>
<path d="M91.9705 111.188L70.0028 97.34L58.7818 107.393L51.1958 98.5389C51.1958 98.5389 65.1035 77.984 69.2126 77.0353C73.3216 76.0867 79.9594 75.4542 79.9594 75.4542L100.189 94.1117L91.9705 111.188Z" fill="#2F2E41"/>
<path d="M39.1847 109.291L46.4546 117.196L45.4959 118.017C45.4959 118.017 43.6099 126.235 39.1847 123.455C34.7595 120.675 34.4434 120.042 34.4434 120.042C34.4434 120.042 21.8001 122.888 20.5358 117.829C19.2715 112.769 22.7484 113.718 22.7484 113.718L25.9055 115.615L39.1847 109.291Z" fill="#2F2E41"/>
<path d="M122.314 51.1046C127.901 51.1046 132.429 46.5741 132.429 40.9853C132.429 35.3966 127.901 30.866 122.314 30.866C116.728 30.866 112.2 35.3966 112.2 40.9853C112.2 46.5741 116.728 51.1046 122.314 51.1046Z" fill="#FCC789"/>
<path d="M119.944 55.3737L134.484 50.9465C134.484 50.9465 140.173 64.2281 139.225 70.2364C138.277 76.2448 129.638 104.87 129.638 104.87L110.461 94.2698C110.461 94.2698 110.145 87.9452 109.197 85.0992C108.249 82.2531 105.246 73.5568 111.884 66.2836C118.521 59.0103 119.944 55.3737 119.944 55.3737Z" fill="#E6E6E6"/>
<path d="M87.9427 123.457C85.5764 126.293 85.1211 129.813 86.9255 131.32C88.7298 132.826 92.1101 131.748 94.4769 128.91C95.4378 127.79 96.1166 126.455 96.4564 125.018L106.331 112.875L101.521 108.98L91.4168 120.811C90.0642 121.403 88.8729 122.31 87.9427 123.457Z" fill="#FCC789"/>
<path d="M131.097 63.4344L134.533 77.0535L117.713 103.991L100.542 121.256L94.9763 116.637L112.294 95.0798L125.42 67.3044L131.097 63.4344Z" fill="#E6E6E6"/>
<path d="M112.99 39.246C115.584 39.2398 115.731 39.2571 116.151 39.246C119.368 39.1612 120.21 37.8948 121.84 37.9811C124.751 38.1353 120.909 52.7351 119.312 59.4847C117.745 66.1043 123.04 72.036 123.421 72.45C128.796 78.2984 138.237 79.3678 139.857 76.8772C141.168 74.8614 136.521 71.7963 137.645 67.3904C138.743 63.0834 143.813 63.5421 145.231 59.4847C146.715 55.2355 141.727 53.0925 138.593 42.7246C136.793 36.7702 137.111 35.6608 135.432 31.9728C130.943 22.1151 108.939 26.3122 111.41 35.4513C111.887 37.2191 110.616 39.2517 112.99 39.246Z" fill="#2F2E41"/>
</svg>
