<svg width="224" height="164" viewBox="0 0 224 164" fill="none" xmlns="http://www.w3.org/2000/svg">
<g clip-path="url(#clip0_61_241)">
<path d="M138.523 131.855H7.52305C6.08054 131.853 4.69758 131.28 3.67756 130.26C2.65755 129.241 2.08379 127.858 2.08215 126.416V32.4787C2.08379 31.0369 2.65755 29.6546 3.67756 28.6351C4.69758 27.6156 6.08054 27.0422 7.52305 27.0405H138.523C139.965 27.0422 141.348 27.6156 142.368 28.6351C143.388 29.6546 143.962 31.0369 143.964 32.4787V126.416C143.962 127.858 143.388 129.241 142.368 130.26C141.348 131.28 139.965 131.853 138.523 131.855ZM7.52305 29.9027C6.83976 29.9035 6.18469 30.1752 5.70153 30.6581C5.21837 31.141 4.94658 31.7958 4.94579 32.4787V126.416C4.94656 127.099 5.21834 127.754 5.70151 128.237C6.18467 128.72 6.83976 128.992 7.52305 128.992H138.523C139.206 128.992 139.861 128.72 140.344 128.237C140.827 127.754 141.099 127.099 141.1 126.416V32.4787C141.099 31.7958 140.827 31.141 140.344 30.6581C139.861 30.1752 139.206 29.9035 138.523 29.9027H7.52305Z" fill="#E6E6E6"/>
<path d="M70.2387 164C76.0598 164 80.7787 159.284 80.7787 153.465C80.7787 147.647 76.0598 142.931 70.2387 142.931C64.4177 142.931 59.6988 147.647 59.6988 153.465C59.6988 159.284 64.4177 164 70.2387 164Z" fill="#E6E6E6"/>
<path d="M70.2387 161.542C74.7015 161.542 78.3193 157.926 78.3193 153.465C78.3193 149.005 74.7015 145.389 70.2387 145.389C65.7759 145.389 62.1581 149.005 62.1581 153.465C62.1581 157.926 65.7759 161.542 70.2387 161.542Z" fill="white"/>
<path d="M74.2868 157.876C74.2385 157.876 74.1906 157.867 74.146 157.848C74.1013 157.83 74.0608 157.803 74.0267 157.769L65.9294 149.675C65.8634 149.606 65.8271 149.513 65.8284 149.417C65.8297 149.321 65.8683 149.23 65.9362 149.162C66.004 149.094 66.0957 149.055 66.1916 149.054C66.2875 149.053 66.3802 149.089 66.4498 149.155L74.547 157.248C74.5985 157.3 74.6335 157.365 74.6477 157.437C74.6619 157.508 74.6546 157.582 74.6267 157.649C74.5989 157.716 74.5517 157.774 74.4913 157.814C74.4308 157.855 74.3596 157.876 74.2869 157.876H74.2868Z" fill="#21A986"/>
<path d="M74.8087 154.244C74.8849 154.124 74.9251 153.986 74.9247 153.844C74.9243 153.702 74.8832 153.564 74.8064 153.445C74.2161 152.522 73.438 151.735 72.5228 151.133C71.5953 150.517 70.5094 150.181 69.3955 150.166C68.8338 150.167 68.2759 150.258 67.7434 150.437C67.7285 150.442 67.7151 150.451 67.7045 150.462C67.6939 150.474 67.6865 150.488 67.6829 150.503C67.6793 150.519 67.6796 150.535 67.684 150.55C67.6883 150.565 67.6964 150.578 67.7075 150.59L68.7942 151.676C68.8056 151.687 68.8198 151.695 68.8353 151.699C68.8508 151.703 68.8671 151.704 68.8827 151.7C69.4516 151.561 70.0523 151.654 70.5526 151.959C71.0529 152.263 71.4118 152.753 71.5505 153.322L71.5531 153.333C71.7409 154.212 72.1697 155.022 72.7915 155.672L73.1377 156.018C73.1541 156.034 73.1759 156.044 73.199 156.045C73.222 156.046 73.2446 156.038 73.2622 156.023C73.8638 155.511 74.3851 154.911 74.8087 154.244Z" fill="#21A986"/>
<path d="M71.0387 155.17C70.7487 155.17 70.4615 155.113 70.1936 155.002C69.9256 154.891 69.6822 154.729 69.4771 154.524C69.272 154.319 69.1094 154.076 68.9984 153.808C68.8874 153.54 68.8302 153.253 68.8302 152.963C68.8302 152.961 68.8302 152.959 68.8302 152.957C68.835 152.765 68.8015 152.573 68.7316 152.393C68.6617 152.213 68.5568 152.049 68.423 151.91L67.3307 150.818C67.3143 150.801 67.2923 150.792 67.2691 150.791C67.2459 150.79 67.2233 150.798 67.2056 150.813C66.6151 151.325 66.0922 151.909 65.6496 152.553C65.5664 152.673 65.5206 152.814 65.5179 152.96C65.5153 153.105 65.556 153.248 65.6349 153.37C66.2156 154.294 66.9863 155.082 67.8957 155.685C68.8246 156.304 69.9149 156.637 71.0313 156.642C71.5987 156.64 72.1624 156.551 72.7023 156.376C72.7173 156.371 72.7309 156.363 72.7416 156.351C72.7524 156.34 72.76 156.326 72.7637 156.31C72.7674 156.295 72.7672 156.279 72.7629 156.264C72.7586 156.249 72.7505 156.235 72.7393 156.224L71.6473 155.132C71.636 155.121 71.622 155.113 71.6065 155.109C71.5911 155.105 71.5749 155.104 71.5594 155.108C71.3889 155.15 71.2141 155.17 71.0387 155.17Z" fill="#21A986"/>
<path d="M30.2489 164C36.07 164 40.7889 159.284 40.7889 153.465C40.7889 147.647 36.07 142.931 30.2489 142.931C24.4279 142.931 19.709 147.647 19.709 153.465C19.709 159.284 24.4279 164 30.2489 164Z" fill="#E6E6E6"/>
<path d="M30.249 161.542C34.7118 161.542 38.3296 157.926 38.3296 153.465C38.3296 149.005 34.7118 145.389 30.249 145.389C25.7862 145.389 22.1683 149.005 22.1683 153.465C22.1683 157.926 25.7862 161.542 30.249 161.542Z" fill="white"/>
<path d="M33.3533 158.615C32.9042 158.615 32.2735 158.453 31.3289 157.926C30.155 157.299 29.083 156.497 28.1496 155.549C27.1835 154.629 26.3767 153.556 25.7621 152.372C24.9146 150.831 25.0591 150.024 25.2206 149.679C25.407 149.302 25.7001 148.987 26.0637 148.775C26.2721 148.638 26.4926 148.521 26.7225 148.425C26.7455 148.415 26.7669 148.406 26.786 148.398C26.862 148.354 26.9464 148.328 27.0335 148.32C27.1205 148.312 27.2083 148.323 27.2909 148.352C27.4745 148.44 27.6379 148.565 27.7708 148.719C28.2492 149.256 28.6528 149.855 28.9706 150.5C29.1013 150.723 29.1816 150.972 29.2059 151.229C29.1869 151.483 29.0837 151.725 28.9127 151.914C28.8825 151.955 28.8526 151.995 28.8236 152.033C28.6486 152.263 28.6102 152.329 28.6355 152.448C28.6868 152.686 29.4641 152.893 30.0928 153.52C30.7215 154.147 31.0163 155.008 31.2558 155.059C31.3796 155.086 31.4474 155.046 31.6848 154.865C31.7189 154.839 31.7538 154.812 31.7904 154.785C31.9807 154.606 32.226 154.496 32.4865 154.473H32.4879C32.749 154.5 33.0001 154.588 33.2208 154.731C33.8585 155.054 34.4544 155.454 34.9952 155.921C35.15 156.053 35.2757 156.216 35.3644 156.399C35.3929 156.482 35.4035 156.57 35.3956 156.657C35.3877 156.745 35.3614 156.829 35.3184 156.905C35.3099 156.924 35.3005 156.945 35.2906 156.969C35.1938 157.198 35.076 157.418 34.9389 157.626C34.7258 157.989 34.4108 158.281 34.033 158.467C33.8206 158.567 33.5882 158.618 33.3533 158.615Z" fill="#21A986"/>
<path d="M110.538 164C116.36 164 121.078 159.284 121.078 153.465C121.078 147.647 116.36 142.931 110.538 142.931C104.717 142.931 99.9985 147.647 99.9985 153.465C99.9985 159.284 104.717 164 110.538 164Z" fill="#E6E6E6"/>
<path d="M110.538 161.542C115.001 161.542 118.619 157.926 118.619 153.465C118.619 149.005 115.001 145.389 110.538 145.389C106.076 145.389 102.458 149.005 102.458 153.465C102.458 157.926 106.076 161.542 110.538 161.542Z" fill="white"/>
<path d="M113.483 151.957C113.385 151.957 113.292 151.996 113.223 152.065C113.154 152.134 113.115 152.227 113.115 152.325V153.061C113.115 154.483 111.961 154.9 110.538 154.9C109.116 154.9 107.962 154.483 107.962 153.061V152.325C107.962 152.227 107.923 152.134 107.854 152.065C107.785 151.996 107.692 151.957 107.594 151.957C107.496 151.957 107.403 151.996 107.334 152.065C107.265 152.134 107.226 152.227 107.226 152.325V153.061C107.227 153.875 107.528 154.66 108.071 155.266C108.614 155.873 109.361 156.258 110.17 156.35V157.843C110.17 157.941 110.209 158.034 110.278 158.103C110.347 158.172 110.441 158.211 110.538 158.211H110.539C110.636 158.211 110.73 158.172 110.799 158.103C110.868 158.034 110.907 157.941 110.907 157.843V156.35C111.716 156.258 112.463 155.873 113.006 155.266C113.549 154.66 113.85 153.875 113.851 153.061V152.325C113.851 152.227 113.812 152.134 113.743 152.065C113.674 151.996 113.581 151.957 113.483 151.957Z" fill="#21A986"/>
<path d="M110.538 153.859C110.087 153.868 109.64 153.766 109.238 153.562C109.093 153.504 108.966 153.409 108.871 153.285C108.776 153.162 108.717 153.015 108.698 152.86V151.491C108.694 150.948 109.512 150.506 110.524 150.504C110.529 150.504 110.534 150.504 110.538 150.504C111.544 150.498 112.368 150.931 112.379 151.47C112.379 151.477 112.379 151.484 112.379 151.491V152.86C112.384 153.408 111.561 153.855 110.538 153.859Z" fill="#21A986"/>
<path d="M138.523 130.567H7.52305C6.42219 130.565 5.36678 130.128 4.58835 129.35C3.80993 128.572 3.37205 127.517 3.37079 126.416V32.4786C3.37205 31.3783 3.80993 30.3234 4.58835 29.5453C5.36678 28.7673 6.42219 28.3296 7.52305 28.3284H138.523C139.624 28.3296 140.679 28.7673 141.457 29.5453C142.236 30.3234 142.674 31.3783 142.675 32.4786V126.416C142.674 127.517 142.236 128.572 141.457 129.35C140.679 130.128 139.624 130.565 138.523 130.567Z" fill="white"/>
<path d="M72.3816 86.5446C80.0396 86.5446 86.2476 80.3397 86.2476 72.6855C86.2476 65.0314 80.0396 58.8264 72.3816 58.8264C64.7236 58.8264 58.5156 65.0314 58.5156 72.6855C58.5156 80.3397 64.7236 86.5446 72.3816 86.5446Z" fill="#FCC789"/>
<path d="M56.9136 59.3531C57.0185 57.7616 58.0715 56.133 61.4171 55.282C61.4171 55.282 67.1587 47.9436 74.961 51.7919C74.961 51.7919 78.7435 51.1415 81.5483 55.064C81.5483 55.064 84.3291 53.4248 85.5023 56.3303C85.5023 56.3303 88.7637 62.257 87.563 68.3023C86.3623 74.3475 85.7477 75.102 85.7477 75.102C85.7477 75.102 87.2782 62.5975 78.463 63.4646C69.6479 64.3316 62.5508 61.2332 60.5545 68.0172C58.8969 73.6503 59.1057 76.5759 59.1057 76.5759C59.1057 76.5759 53.5625 70.9564 55.4472 66.5314C56.4112 64.2682 56.752 61.8076 56.9136 59.3531Z" fill="#2F2E41"/>
<path d="M34.6746 130.423H111.371C110.859 124.576 110.524 120.225 110.524 118.754C110.524 112.266 105.211 105.184 105.211 105.184L103.31 104.134L87.4312 99.1824L83.3219 93.8472C82.8916 93.2869 82.3371 92.834 81.7021 92.5241C81.0671 92.2142 80.3688 92.0557 79.6622 92.0612L66.6813 92.1585C65.539 92.1673 64.4412 92.6021 63.6029 93.3778L55.5647 100.831L43.7752 106.458L43.7551 106.438L43.632 106.53L41.8823 107.789L40.7569 108.602C40.7569 108.602 37.8045 112.142 35.4449 122.761C35.0898 124.358 34.8406 127.032 34.6746 130.423Z" fill="#21A986"/>
<path d="M223.177 11.8709H0.822718C0.736468 11.869 0.654388 11.8335 0.594057 11.7718C0.533725 11.7102 0.499939 11.6274 0.499939 11.5412C0.499939 11.455 0.533725 11.3722 0.594057 11.3105C0.654388 11.2489 0.736468 11.2133 0.822718 11.2114H223.177C223.264 11.2133 223.346 11.2489 223.406 11.3105C223.466 11.3722 223.5 11.455 223.5 11.5412C223.5 11.6274 223.466 11.7102 223.406 11.7718C223.346 11.8335 223.264 11.869 223.177 11.8709Z" fill="#CACACA"/>
<path d="M8.08649 7.25448C10.0471 7.25448 11.6364 5.63051 11.6364 3.62724C11.6364 1.62397 10.0471 0 8.08649 0C6.12592 0 4.53656 1.62397 4.53656 3.62724C4.53656 5.63051 6.12592 7.25448 8.08649 7.25448Z" fill="#F9F9F9"/>
<path d="M20.3499 7.25448C22.3104 7.25448 23.8998 5.63051 23.8998 3.62724C23.8998 1.62397 22.3104 0 20.3499 0C18.3893 0 16.7999 1.62397 16.7999 3.62724C16.7999 5.63051 18.3893 7.25448 20.3499 7.25448Z" fill="#F9F9F9"/>
<path d="M32.6132 7.25448C34.5738 7.25448 36.1631 5.63051 36.1631 3.62724C36.1631 1.62397 34.5738 0 32.6132 0C30.6527 0 29.0633 1.62397 29.0633 3.62724C29.0633 5.63051 30.6527 7.25448 32.6132 7.25448Z" fill="#F9F9F9"/>
<path d="M215.83 2.21865H207.116C206.944 2.21487 206.78 2.14372 206.659 2.02045C206.538 1.89718 206.471 1.7316 206.471 1.55915C206.471 1.38671 206.538 1.22112 206.659 1.09786C206.78 0.974589 206.944 0.903445 207.116 0.899658H215.83C216.002 0.903445 216.166 0.974589 216.287 1.09786C216.408 1.22112 216.475 1.38671 216.475 1.55915C216.475 1.7316 216.408 1.89718 216.287 2.02045C216.166 2.14372 216.002 2.21487 215.83 2.21865Z" fill="#F9F9F9"/>
<path d="M215.83 4.69179H207.116C206.944 4.68801 206.78 4.61686 206.659 4.4936C206.538 4.37033 206.471 4.20474 206.471 4.0323C206.471 3.85986 206.538 3.69427 206.659 3.571C206.78 3.44773 206.944 3.37659 207.116 3.3728H215.83C216.002 3.37659 216.166 3.44773 216.287 3.571C216.408 3.69427 216.475 3.85986 216.475 4.0323C216.475 4.20474 216.408 4.37033 216.287 4.4936C216.166 4.61686 216.002 4.68801 215.83 4.69179Z" fill="#F9F9F9"/>
<path d="M215.83 7.16494H207.116C206.944 7.16116 206.78 7.09001 206.659 6.96674C206.538 6.84347 206.471 6.67789 206.471 6.50544C206.471 6.333 206.538 6.16741 206.659 6.04415C206.78 5.92088 206.944 5.84973 207.116 5.84595H215.83C216.002 5.84973 216.166 5.92088 216.287 6.04415C216.408 6.16741 216.475 6.333 216.475 6.50544C216.475 6.67789 216.408 6.84347 216.287 6.96674C216.166 7.09001 216.002 7.16116 215.83 7.16494Z" fill="#F9F9F9"/>
<path d="M209.755 136.51H166.039C164.597 136.508 163.214 135.934 162.194 134.915C161.174 133.895 160.6 132.513 160.599 131.071V101.145C160.6 99.7034 161.174 98.3212 162.194 97.3016C163.214 96.2821 164.597 95.7087 166.039 95.707H209.755C211.197 95.7087 212.58 96.2821 213.6 97.3016C214.62 98.3212 215.194 99.7034 215.196 101.145V131.071C215.194 132.513 214.62 133.895 213.6 134.915C212.58 135.934 211.197 136.508 209.755 136.51ZM166.039 98.5692C165.356 98.57 164.701 98.8417 164.218 99.3246C163.735 99.8075 163.463 100.462 163.462 101.145V131.071C163.463 131.754 163.735 132.409 164.218 132.892C164.701 133.375 165.356 133.647 166.039 133.647H209.755C210.438 133.647 211.093 133.375 211.576 132.892C212.059 132.409 212.331 131.754 212.332 131.071V101.145C212.331 100.462 212.059 99.8075 211.576 99.3246C211.093 98.8417 210.438 98.57 209.755 98.5692H166.039Z" fill="#E6E6E6"/>
<path d="M209.755 135.222H166.039C164.939 135.22 163.883 134.783 163.105 134.005C162.326 133.227 161.888 132.172 161.887 131.071V101.145C161.888 100.045 162.326 98.9899 163.105 98.2118C163.883 97.4338 164.939 96.9961 166.039 96.9949H209.755C210.855 96.9961 211.911 97.4338 212.689 98.2118C213.468 98.9899 213.906 100.045 213.907 101.145V131.071C213.906 132.172 213.468 133.227 212.689 134.005C211.911 134.783 210.855 135.22 209.755 135.222Z" fill="white"/>
<path d="M191.996 106.736C192.249 105.161 191.534 104 189.638 103.345C187.752 101.71 184.965 101.317 183.292 103.937C182.616 103.897 181.951 104.119 181.436 104.557C180.92 104.995 180.594 105.615 180.524 106.288C178.988 108.073 180.694 114.626 181.2 117.122L183.897 117.096L189.282 117.042L191.996 117.016L193.031 111.161C193.659 109.459 193.403 107.967 191.996 106.736Z" fill="#E6E6E6"/>
<path d="M201.792 131.384C202.496 130.934 203.243 130.554 204.02 130.247L196.35 121.145L191.281 119.848C191.24 119.825 191.198 119.801 191.158 119.776L182.607 120.104L182.57 120.068L177.178 122.704L169.508 131.567C170.265 131.864 170.992 132.231 171.68 132.664L170.888 135.673H176.377L177.837 133.552H177.91C177.91 133.515 177.913 133.479 177.913 133.442L178.938 131.953C178.961 133.156 178.928 134.396 178.845 135.673H195.915C195.888 134.612 195.881 133.558 195.881 132.511L197.79 135.281C197.933 135.071 198.086 134.875 198.239 134.675L198.615 135.673H202.986L201.938 131.69C201.909 131.58 201.859 131.476 201.792 131.384Z" fill="#E6E6E6"/>
<path d="M209.755 67.5418H166.039C164.597 67.5402 163.214 66.9667 162.194 65.9472C161.174 64.9277 160.6 63.5454 160.599 62.1036V32.1775C160.6 30.7357 161.174 29.3534 162.194 28.3339C163.214 27.3144 164.597 26.7409 166.039 26.7393H209.755C211.197 26.7409 212.58 27.3144 213.6 28.3339C214.62 29.3534 215.194 30.7357 215.196 32.1775V62.1036C215.194 63.5454 214.62 64.9277 213.6 65.9472C212.58 66.9667 211.197 67.5402 209.755 67.5418ZM166.039 29.6015C165.356 29.6023 164.701 29.8739 164.218 30.3568C163.735 30.8398 163.463 31.4945 163.462 32.1775V62.1036C163.463 62.7866 163.735 63.4413 164.218 63.9242C164.701 64.4072 165.356 64.6788 166.039 64.6796H209.755C210.438 64.6788 211.093 64.4072 211.576 63.9242C212.059 63.4413 212.331 62.7866 212.332 62.1036V32.1775C212.331 31.4945 212.059 30.8398 211.576 30.3568C211.093 29.8739 210.438 29.6023 209.755 29.6015H166.039Z" fill="#E6E6E6"/>
<path d="M209.755 66.2539H166.039C164.939 66.2526 163.883 65.815 163.105 65.0369C162.326 64.2589 161.888 63.204 161.887 62.1037V32.1775C161.888 31.0772 162.326 30.0223 163.105 29.2443C163.883 28.4663 164.939 28.0286 166.039 28.0273H209.755C210.855 28.0286 211.911 28.4663 212.689 29.2443C213.468 30.0223 213.906 31.0772 213.907 32.1775V62.1037C213.906 63.204 213.468 64.2589 212.689 65.0369C211.911 65.815 210.855 66.2526 209.755 66.2539Z" fill="white"/>
<path d="M182.375 42.7827C182.506 44.113 183.097 45.3561 184.046 46.2983C184.995 47.2405 186.242 47.8228 187.574 47.9452C188.906 48.0675 190.238 47.7223 191.343 46.9688C192.448 46.2153 193.255 45.1007 193.627 43.8165C193.813 43.6225 195.878 41.4173 195.13 39.663C194.761 38.7112 194.555 37.7039 194.522 36.6837C194.478 36.0232 194.041 35.3472 192.653 34.994C192.653 34.994 190.27 31.9483 187.031 33.5455C187.031 33.5455 185.461 33.2756 184.297 34.9036C184.297 34.9036 183.143 34.2232 182.656 35.4291C182.656 35.4291 181.303 37.8889 181.801 40.398C181.947 41.2031 182.139 41.9993 182.375 42.7827Z" fill="#E6E6E6"/>
<path d="M203.432 63.5953C202.453 59.1881 201.227 57.7186 201.227 57.7186L200.76 57.3812L200.034 56.8586L199.983 56.8205L199.975 56.8289L195.082 54.4934L191.745 51.4C191.397 51.0781 190.942 50.8976 190.468 50.894L185.08 50.8536C184.787 50.8513 184.497 50.9171 184.233 51.0457C183.97 51.1743 183.74 51.3623 183.561 51.5948L181.856 53.8091L175.265 55.8643L174.476 56.3002C174.476 56.3002 172.271 59.2392 172.271 61.9322C172.271 62.5428 172.132 64.3485 171.92 66.7754H203.752C203.724 65.709 203.617 64.646 203.432 63.5953Z" fill="#E6E6E6"/>
<path d="M182.467 107.956H125.314C123.428 107.954 121.62 107.204 120.287 105.871C118.953 104.538 118.203 102.731 118.201 100.846V61.7205C118.203 59.8355 118.953 58.0283 120.287 56.6954C121.62 55.3625 123.428 54.6127 125.314 54.6106H182.467C184.353 54.6127 186.162 55.3625 187.495 56.6954C188.829 58.0283 189.579 59.8355 189.581 61.7205V100.846C189.579 102.731 188.829 104.538 187.495 105.871C186.162 107.204 184.353 107.954 182.467 107.956ZM125.314 58.3526C124.421 58.3537 123.564 58.7088 122.933 59.3402C122.301 59.9716 121.946 60.8276 121.945 61.7205V100.846C121.946 101.739 122.301 102.595 122.933 103.226C123.564 103.858 124.421 104.213 125.314 104.214H182.467C183.361 104.213 184.217 103.858 184.849 103.226C185.481 102.595 185.836 101.739 185.837 100.846V61.7205C185.836 60.8276 185.481 59.9716 184.849 59.3402C184.217 58.7088 183.361 58.3537 182.467 58.3526H125.314Z" fill="#E6E6E6"/>
<path d="M182.467 56.2942H125.314C123.875 56.2961 122.495 56.8686 121.477 57.886C120.459 58.9034 119.886 60.2828 119.884 61.7217V100.847C119.886 102.286 120.459 103.665 121.477 104.682C122.495 105.699 123.875 106.271 125.314 106.272H182.467C183.906 106.271 185.286 105.699 186.304 104.682C187.322 103.665 187.895 102.286 187.897 100.847V61.7217C187.895 60.2828 187.322 58.9034 186.304 57.886C185.286 56.8686 183.906 56.2961 182.467 56.2942Z" fill="white"/>
<path d="M163.945 72.6507C166.41 72.6507 168.408 70.6534 168.408 68.1897C168.408 65.726 166.41 63.7288 163.945 63.7288C161.48 63.7288 159.482 65.726 159.482 68.1897C159.482 70.6534 161.48 72.6507 163.945 72.6507Z" fill="#2F2E41"/>
<path d="M154.776 87.8095C161.021 87.8095 166.083 82.7498 166.083 76.5084C166.083 70.267 161.021 65.2073 154.776 65.2073C148.532 65.2073 143.47 70.267 143.47 76.5084C143.47 82.7498 148.532 87.8095 154.776 87.8095Z" fill="#2F2E41"/>
<path d="M152.812 88.4967C157.886 88.4967 162 84.3852 162 79.3133C162 74.2414 157.886 70.1299 152.812 70.1299C147.737 70.1299 143.624 74.2414 143.624 79.3133C143.624 84.3852 147.737 88.4967 152.812 88.4967Z" fill="#FCC789"/>
<path d="M149.348 67.8767C151.133 67.2688 153.048 67.1513 154.894 67.5366C156.74 67.9219 158.448 68.7957 159.841 70.0668C161.233 71.3378 162.258 72.9594 162.808 74.7619C163.359 76.5645 163.415 78.4818 162.971 80.3133C158.145 80.4432 153.149 80.2525 148.665 77.418L148.142 74.3465L146.835 77.013C145.216 77.289 143.614 77.4709 142.377 76.0147C142.724 74.167 143.551 72.443 144.775 71.0149C145.998 69.5868 147.575 68.5047 149.348 67.8767Z" fill="#2F2E41"/>
<path d="M170.634 57.2718C173.954 56.5615 177.59 58.0505 179.616 60.7735C181.642 63.4965 182.05 67.2852 180.836 70.4543C179.597 73.6873 176.923 76.1136 174.422 78.5089C171.921 80.9043 169.404 83.5786 168.653 86.9582C168.113 89.3924 168.56 91.9416 169.897 94.0466C171.234 96.1517 173.352 97.6409 175.786 98.1876C172.654 98.7814 169.392 99.3714 166.316 98.534C163.24 97.6966 160.427 94.9746 160.604 91.7933C160.731 89.5011 162.296 87.5867 163.658 85.738C165.877 82.7254 167.723 79.4563 169.158 76.0016C169.843 74.3527 170.441 72.5922 170.249 70.8174C170.076 69.4952 169.482 68.2638 168.555 67.3046C167.628 66.3454 166.418 65.7093 165.102 65.49L164.281 64.338C164.555 60.9555 167.314 57.982 170.634 57.2718Z" fill="#2F2E41"/>
<path d="M173.892 106.019C173.297 99.958 169.934 100.196 169.934 100.196L161.056 98.4621L157.167 92.0086L147.404 91.6279L143.929 97.7186L136.788 98.6108L136.782 98.7119C136.074 98.7655 133.521 99.3246 133.009 104.532C132.961 105.011 132.896 105.597 132.813 106.272H173.918C173.909 106.183 173.901 106.099 173.892 106.019Z" fill="#2F2E41"/>
</g>
<defs>
<clipPath id="clip0_61_241">
<rect width="223" height="164" fill="white" transform="translate(0.5)"/>
</clipPath>
</defs>
</svg>
