<svg width="24" height="25" viewBox="0 0 24 25" fill="none" xmlns="http://www.w3.org/2000/svg">
<path d="M16.19 2.5H7.81C4.17 2.5 2 4.67 2 8.31V16.68C2 20.33 4.17 22.5 7.81 22.5H16.18C19.82 22.5 21.99 20.33 21.99 16.69V8.31C22 4.67 19.83 2.5 16.19 2.5ZM12 16.38C9.86 16.38 8.12 14.64 8.12 12.5C8.12 10.36 9.86 8.62 12 8.62C14.14 8.62 15.88 10.36 15.88 12.5C15.88 14.64 14.14 16.38 12 16.38ZM17.92 7.38C17.87 7.5 17.8 7.61 17.71 7.71C17.61 7.8 17.5 7.87 17.38 7.92C17.198 7.99725 16.9971 8.01853 16.803 7.98113C16.6089 7.94372 16.4303 7.84933 16.29 7.71C16.2 7.61 16.13 7.5 16.08 7.38C16.0286 7.25982 16.0015 7.13069 16 7C16 6.87 16.03 6.74 16.08 6.62C16.13 6.49 16.2 6.39 16.29 6.29C16.52 6.06 16.87 5.95 17.19 6.02C17.26 6.03 17.32 6.05 17.38 6.08C17.44 6.1 17.5 6.13 17.56 6.17C17.61 6.2 17.66 6.25 17.71 6.29C17.8 6.39 17.87 6.49 17.92 6.62C17.97 6.74 18 6.87 18 7C18 7.13 17.97 7.26 17.92 7.38Z" fill="white"/>
</svg>
