<svg width="24" height="25" viewBox="0 0 24 25" fill="none" xmlns="http://www.w3.org/2000/svg">
<path d="M13.73 4.00989L15.49 7.52989C15.73 8.01989 16.37 8.48989 16.91 8.57989L20.1 9.10989C22.14 9.44989 22.62 10.9299 21.15 12.3899L18.67 14.8699C18.25 15.2899 18.02 16.0999 18.15 16.6799L18.86 19.7499C19.42 22.1799 18.13 23.1199 15.98 21.8499L12.99 20.0799C12.45 19.7599 11.56 19.7599 11.01 20.0799L8.02 21.8499C5.88 23.1199 4.58 22.1699 5.14 19.7499L5.85 16.6799C5.98 16.0999 5.75 15.2899 5.33 14.8699L2.85 12.3899C1.39 10.9299 1.86 9.44989 3.9 9.10989L7.09 8.57989C7.62 8.48989 8.26 8.01989 8.5 7.52989L10.26 4.00989C11.22 2.09989 12.78 2.09989 13.73 4.00989Z" fill="#F47833" stroke="#F47833" stroke-width="1.5" stroke-linecap="round" stroke-linejoin="round"/>
</svg>
