<svg width="24" height="25" viewBox="0 0 24 25" fill="none" xmlns="http://www.w3.org/2000/svg">
<path fill-rule="evenodd" clip-rule="evenodd" d="M20.5 2.5H5.04C4.71 2.5 4.39 2.67 4.21 2.95L2.67 5.25C2.5601 5.41245 2.50094 5.60387 2.5 5.8V18.5C2.5 19.05 2.95 19.5 3.5 19.5H5.5C6.05 19.5 6.5 19.95 6.5 20.5V21.5C6.5 22.05 6.95 22.5 7.5 22.5H8.96C9.29 22.5 9.61 22.33 9.79 22.05L11.2 19.94C11.39 19.66 11.7 19.49 12.03 19.49H16.08C16.35 19.49 16.6 19.38 16.79 19.2L21.2 14.79C21.2931 14.6969 21.3668 14.5861 21.4165 14.4642C21.4663 14.3423 21.4913 14.2117 21.49 14.08V3.5C21.5 2.95 21.05 2.5 20.5 2.5ZM10.79 13.36C10.79 13.68 10.53 13.93 10.22 13.93H9.08C8.92883 13.93 8.78385 13.8699 8.67695 13.7631C8.57005 13.6562 8.51 13.5112 8.51 13.36V7.65C8.51 7.33 8.77 7.08 9.08 7.08H10.22C10.54 7.08 10.79 7.34 10.79 7.65V13.36ZM16.5 13.36C16.5 13.68 16.24 13.93 15.93 13.93H14.79C14.7151 13.93 14.641 13.9153 14.5719 13.8866C14.5027 13.858 14.4399 13.816 14.3869 13.7631C14.334 13.7101 14.292 13.6473 14.2634 13.5781C14.2347 13.509 14.22 13.4349 14.22 13.36V7.65C14.22 7.33 14.48 7.08 14.79 7.08H15.93C16.25 7.08 16.5 7.34 16.5 7.65V13.36Z" fill="white"/>
</svg>
