<svg width="24" height="25" viewBox="0 0 24 25" fill="none" xmlns="http://www.w3.org/2000/svg">
<path d="M21.98 11.91C21.64 6.10996 16.37 1.63996 10.3 2.63996C6.11999 3.32996 2.76999 6.71996 2.11999 10.9C1.73999 13.32 2.23999 15.61 3.32999 17.5L2.43999 20.81C2.23999 21.56 2.92999 22.24 3.66999 22.03L6.92999 21.13C8.40999 22 10.14 22.5 11.99 22.5C17.63 22.5 22.31 17.53 21.98 11.91ZM16.88 16.22C16.6388 16.7147 16.2268 17.1054 15.72 17.32C15.42 17.45 15.09 17.51 14.74 17.51C14.23 17.51 13.68 17.39 13.11 17.14C12.5025 16.8732 11.9258 16.5413 11.39 16.15C10.81 15.73 10.27 15.26 9.74999 14.75C9.22999 14.23 8.76999 13.68 8.34999 13.11C7.93999 12.54 7.60999 11.97 7.36999 11.4C7.12999 10.83 7.00999 10.28 7.00999 9.75996C7.00999 9.41996 7.06999 9.08996 7.18999 8.78996C7.30999 8.47996 7.49999 8.19996 7.76999 7.94996C8.08999 7.62996 8.43999 7.47996 8.80999 7.47996C8.94999 7.47996 9.08999 7.50996 9.21999 7.56996C9.34999 7.62996 9.46999 7.71996 9.55999 7.84996L10.72 9.48996C10.81 9.61996 10.88 9.72996 10.92 9.83996C10.97 9.94996 10.99 10.05 10.99 10.15C10.99 10.27 10.95 10.39 10.88 10.51C10.81 10.63 10.72 10.75 10.6 10.87L10.22 11.27C10.16 11.33 10.14 11.39 10.14 11.47C10.14 11.51 10.15 11.55 10.16 11.59C10.18 11.63 10.19 11.66 10.2 11.69C10.29 11.86 10.45 12.07 10.67 12.33C11.1382 12.8801 11.6498 13.3918 12.2 13.86C12.46 14.08 12.68 14.23 12.85 14.32C12.88 14.33 12.91 14.35 12.94 14.36C12.98 14.38 13.02 14.38 13.07 14.38C13.16 14.38 13.22 14.35 13.28 14.29L13.66 13.91C13.79 13.78 13.91 13.69 14.02 13.63C14.14 13.56 14.25 13.52 14.38 13.52C14.48 13.52 14.58 13.54 14.69 13.59C14.8 13.64 14.92 13.7 15.04 13.79L16.7 14.97C16.83 15.06 16.92 15.17 16.98 15.29C17.03 15.42 17.06 15.54 17.06 15.68C17 15.85 16.96 16.04 16.88 16.22Z" fill="white"/>
</svg>
